#!OML:ASF E:\Style6\Style6.ASF
:FULLY-SPECIFIED
:DEGREES
3281
root -0.545048 18.2402 0.729253 18.148 16.2635 -1.43538
lowerback 10.6535 -0.0640931 2.64516
upperback -2.12213 0.341757 0.79852
thorax -8.23874 0.0598211 -0.704339
lowerneck -6.22289 -1.82232 2.97521
upperneck -23.0587 -3.86692 -8.09502
head -6.16731 -1.5462 -2.99426
rclavicle -6.07287e-014 -1.05356e-014
rhumerus 81.4787 -44.8699 -46.9789
rradius 34.0566
rwrist -5.35448
rhand -20.0031 4.83788
rfingers 7.12502
rthumb 6.33682 -25.0473
lclavicle -6.07287e-014 -1.05356e-014
lhumerus 9.09542 -43.6713 -10.5406
lradius 98.2347
lwrist 35.0069
lhand 1.66147 11.4319
lfingers 7.12502
lthumb 27.1808 39.4941
rfemur -22.1214 11.0429 21.7395
rtibia 15.232
rfoot -26.3747 -29.9008
rtoes 35.8648
lfemur -27.387 -13.9541 -6.80833
ltibia 17.3144
lfoot -1.96192 5.74869
ltoes -22.3565
3282
root -0.540774 18.2295 0.7225 18.1754 16.6223 -1.61291
lowerback 10.5992 -0.0583458 2.82115
upperback -2.1353 0.368531 0.757494
thorax -8.22 0.0632965 -0.851505
lowerneck -6.18374 -1.85752 2.91667
upperneck -23.0843 -3.88975 -7.97119
head -6.18134 -1.55685 -2.94297
rclavicle 1.99779e-014 -1.15295e-014
rhumerus 82.5112 -44.6469 -48.2955
rradius 33.8114
rwrist -5.09978
rhand -20.1888 4.80147
rfingers 7.12502
rthumb 6.15757 -25.089
lclavicle 1.99779e-014 -1.15295e-014
lhumerus 8.77299 -43.5429 -10.1537
lradius 98.3495
lwrist 34.9413
lhand 1.47646 11.5904
lfingers 7.12502
lthumb 27.0038 39.6802
rfemur -22.1732 10.8561 21.9804
rtibia 15.1862
rfoot -26.628 -29.7908
rtoes 36.3411
lfemur -27.7618 -14.0675 -6.509
ltibia 17.5905
lfoot -1.982 5.55635
ltoes -22.4046
3283
root -0.537795 18.2282 0.719261 18.2367 16.9295 -1.68638
lowerback 10.5096 -0.0380978 2.85088
upperback -2.13183 0.390802 0.69123
thorax -8.16305 0.0716195 -0.942121
lowerneck -6.29231 -1.91624 2.82553
upperneck -22.9799 -3.93053 -7.80894
head -6.12899 -1.58231 -2.87304
rclavicle -1.83379e-014 5.36719e-015
rhumerus 83.7323 -44.3057 -49.7885
rradius 33.4134
rwrist -4.47733
rhand -20.7134 4.79985
rfingers 7.12502
rthumb 5.65103 -25.1048
lclavicle -1.83379e-014 5.36719e-015
lhumerus 8.49089 -43.4146 -9.77096
lradius 98.3801
lwrist 34.8914
lhand 1.45536 11.7601
lfingers 7.12502
lthumb 26.9836 39.8531
rfemur -22.1966 10.7089 22.0969
rtibia 15.0932
rfoot -26.7068 -29.8446
rtoes 36.3984
lfemur -28.123 -14.1945 -6.32808
ltibia 17.8921
lfoot -2.10225 5.43268
ltoes -22.3536
3284
root -0.537135 18.2266 0.717398 18.2203 17.1628 -1.81431
lowerback 10.5356 0.00515978 2.88979
upperback -2.13917 0.449187 0.619134
thorax -8.18302 0.0957781 -1.05075
lowerneck -6.35833 -1.97351 2.74632
upperneck -22.8877 -3.97205 -7.65692
head -6.08791 -1.60718 -2.80833
rclavicle 7.60351e-015 3.11098e-014
rhumerus 84.3481 -44.0903 -50.6517
rradius 33.2631
rwrist -4.33286
rhand -21.2732 4.65695
rfingers 7.12502
rthumb 5.11055 -25.2614
lclavicle 7.60351e-015 3.11098e-014
lhumerus 8.24994 -43.3338 -9.45717
lradius 98.373
lwrist 34.9042
lhand 1.54633 11.8262
lfingers 7.12502
lthumb 27.0706 39.9057
rfemur -22.1523 10.6795 22.2544
rtibia 14.9673
rfoot -26.5949 -30.0433
rtoes 36.1229
lfemur -28.3911 -14.3108 -6.11076
ltibia 18.2016
lfoot -2.27528 5.4147
ltoes -22.123
3285
root -0.536673 18.2248 0.71599 18.1423 17.3603 -2.01345
lowerback 10.6274 0.050576 2.99013
upperback -2.16465 0.522109 0.550999
thorax -8.25957 0.123093 -1.19284
lowerneck -6.28359 -2.04767 2.70543
upperneck -22.9011 -4.04467 -7.5074
head -6.1064 -1.64509 -2.74941
rclavicle 1.05604e-014 1.67973e-014
rhumerus 84.5794 -43.9728 -51.1087
rradius 33.2703
rwrist -4.46437
rhand -21.8084 4.26114
rfingers 7.12502
rthumb 4.59382 -25.669
lclavicle 1.05604e-014 1.67973e-014
lhumerus 7.97904 -43.2833 -9.17887
lradius 98.4299
lwrist 35.0102
lhand 1.66054 11.9825
lfingers 7.12502
lthumb 27.1799 40.0449
rfemur -22.0108 10.6345 22.492
rtibia 14.7563
rfoot -26.5473 -30.0843
rtoes 36.2452
lfemur -28.5557 -14.3214 -5.87427
ltibia 18.4343
lfoot -2.31299 5.29079
ltoes -22.3761
3286
root -0.536656 18.2227 0.713466 18.0664 17.5753 -2.2205
lowerback 10.6803 0.0900425 3.06717
upperback -2.16019 0.583472 0.503412
thorax -8.28173 0.14749 -1.29791
lowerneck -6.24881 -2.10768 2.76256
upperneck -22.9451 -4.1193 -7.46291
head -6.13109 -1.68549 -2.74224
rclavicle 3.47625e-014 1.1778e-014
rhumerus 84.8542 -43.8808 -51.5263
rradius 33.2962
rwrist -4.68131
rhand -22.1591 3.87054
rfingers 7.12502
rthumb 4.25511 -26.0667
lclavicle 3.47625e-014 1.1778e-014
lhumerus 7.62709 -43.2178 -8.84394
lradius 98.502
lwrist 35.1194
lhand 1.67613 11.9537
lfingers 7.12502
lthumb 27.1948 40.0137
rfemur -21.8527 10.5339 22.7598
rtibia 14.5086
rfoot -26.5515 -30.1037
rtoes 36.48
lfemur -28.7423 -14.3583 -5.60596
ltibia 18.6823
lfoot -2.41162 5.14102
ltoes -22.0857
3287
root -0.535187 18.2205 0.712475 18.0309 17.775 -2.35076
lowerback 10.6401 0.14608 3.05455
upperback -2.12179 0.650564 0.459865
thorax -8.21352 0.180914 -1.34836
lowerneck -6.29047 -2.16041 2.78386
upperneck -22.9427 -4.18691 -7.45348
head -6.12769 -1.7197 -2.74113
rclavicle 5.0864e-014 -7.00716e-015
rhumerus 85.3208 -43.7405 -52.0634
rradius 33.2125
rwrist -4.83814
rhand -22.4765 3.85474
rfingers 7.12502
rthumb 3.94862 -26.0884
lclavicle 5.0864e-014 -7.00716e-015
lhumerus 7.26735 -43.0873 -8.39313
lradius 98.5412
lwrist 35.1695
lhand 1.6751 11.8492
lfingers 7.12502
lthumb 27.1938 39.9094
rfemur -21.7154 10.4713 22.9298
rtibia 14.2756
rfoot -26.6994 -30.0884
rtoes 36.8065
lfemur -28.9418 -14.3846 -5.43598
ltibia 18.9331
lfoot -2.51033 5.01454
ltoes -22.1587
3288
root -0.533832 18.2184 0.711387 17.9586 17.9339 -2.48393
lowerback 10.6651 0.21597 3.06938
upperback -2.10021 0.73968 0.377274
thorax -8.19929 0.221625 -1.46011
lowerneck -6.25229 -2.22616 2.77325
upperneck -22.9342 -4.25003 -7.32421
head -6.133 -1.75535 -2.6945
rclavicle -2.7482e-014 -1.3741e-014
rhumerus 85.7358 -43.5406 -52.6481
rradius 33.0498
rwrist -4.89564
rhand -22.8804 3.97627
rfingers 7.12502
rthumb 3.55863 -25.9738
lclavicle -2.7482e-014 -1.3741e-014
lhumerus 6.98684 -43.0128 -8.04647
lradius 98.5749
lwrist 35.1481
lhand 1.59432 11.8062
lfingers 7.12502
lthumb 27.1165 39.8785
rfemur -21.5676 10.5254 23.0684
rtibia 14.0894
rfoot -27.0154 -29.9974
rtoes 37.4431
lfemur -29.078 -14.3809 -5.29188
ltibia 19.1731
lfoot -2.61367 4.90208
ltoes -22.348
3289
root -0.531907 18.2158 0.70873 17.9374 18.1227 -2.63755
lowerback 10.6623 0.25009 3.09023
upperback -2.10084 0.782523 0.309539
thorax -8.19515 0.239622 -1.55121
lowerneck -6.20647 -2.26977 2.82373
upperneck -22.9429 -4.29271 -7.23876
head -6.14554 -1.7831 -2.67337
rclavicle 4.91247e-014 1.07468e-014
rhumerus 86.2041 -43.2767 -53.2753
rradius 32.8514
rwrist -4.9497
rhand -23.4074 3.94161
rfingers 7.12502
rthumb 3.04969 -26.0163
lclavicle 4.91247e-014 1.07468e-014
lhumerus 6.60044 -42.9782 -7.66674
lradius 98.6127
lwrist 35.1282
lhand 1.52971 11.8098
lfingers 7.12502
lthumb 27.0547 39.8917
rfemur -21.5344 10.5211 23.2274
rtibia 13.9701
rfoot -27.066 -30.0774
rtoes 37.4879
lfemur -29.2577 -14.3471 -5.10787
ltibia 19.3639
lfoot -2.72544 4.75567
ltoes -22.3422
3290
root -0.529466 18.2136 0.706687 17.9459 18.3403 -2.78171
lowerback 10.5837 0.284487 3.09615
upperback -2.07045 0.821265 0.255925
thorax -8.11411 0.258406 -1.61705
lowerneck -6.42481 -2.34102 2.86173
upperneck -22.7839 -4.36654 -7.16414
head -6.06215 -1.83316 -2.65471
rclavicle 1.39149e-014 -5.63058e-014
rhumerus 86.7778 -43.0489 -53.9407
rradius 32.6618
rwrist -5.03938
rhand -23.7676 3.98148
rfingers 7.12502
rthumb 2.70178 -25.9812
lclavicle 1.39149e-014 -5.63058e-014
lhumerus 6.2549 -42.9004 -7.32644
lradius 98.6767
lwrist 35.1862
lhand 1.49345 11.7606
lfingers 7.12502
lthumb 27.02 39.8478
rfemur -21.5639 10.4269 23.3993
rtibia 13.9337
rfoot -27.0051 -30.1686
rtoes 37.3451
lfemur -29.4416 -14.3368 -4.92353
ltibia 19.4785
lfoot -2.72869 4.60367
ltoes -22.5726
